<?xml version="1.0" standalone="no"?>
<!DOCTYPE svg PUBLIC "-//W3C//DTD SVG 20010904//EN"
 "http://www.w3.org/TR/2001/REC-SVG-20010904/DTD/svg10.dtd">
<svg version="1.0" xmlns="http://www.w3.org/2000/svg"
 width="512.000000pt" height="512.000000pt" viewBox="0 0 512.000000 512.000000"
 preserveAspectRatio="xMidYMid meet">

<g transform="translate(0.000000,512.000000) scale(0.100000,-0.100000)"
fill="#000000" stroke="none">
<path d="M830 5104 c-42 -18 -86 -58 -108 -99 -15 -27 -17 -109 -20 -871 l-3
-842 -92 -4 c-112 -5 -179 -32 -235 -92 -81 -88 -77 -39 -77 -946 0 -801 0
-805 21 -851 54 -116 140 -169 291 -177 l92 -5 3 -536 c3 -588 1 -562 65 -623
65 -62 -61 -58 1793 -58 1854 0 1728 -4 1793 58 64 61 62 35 65 623 l3 536 92
5 c151 8 237 61 291 177 21 46 21 50 21 851 0 907 4 858 -77 946 -56 60 -123
87 -235 92 l-93 4 -1 302 c-1 165 -4 312 -8 326 -8 30 -994 1160 -1033 1184
-24 15 -138 16 -1270 16 -1088 -1 -1247 -3 -1278 -16z m2400 -714 l0 -530 29
-32 29 -33 466 -3 466 -3 0 -249 0 -250 -1660 0 -1660 0 0 815 0 815 1165 0
1165 0 0 -530z m-1855 -1356 c79 -7 225 -55 225 -72 0 -19 -62 -245 -69 -254
-4 -4 -36 4 -73 17 -79 29 -224 50 -285 41 -114 -15 -178 -74 -170 -154 8 -77
51 -108 267 -197 286 -116 390 -235 392 -445 1 -219 -132 -378 -370 -442 -94
-25 -307 -30 -422 -9 -75 13 -207 56 -224 71 -6 7 48 263 59 277 1 2 31 -9 66
-23 132 -54 302 -76 409 -53 65 14 125 68 135 122 20 104 -44 162 -279 252
-184 71 -309 177 -356 302 -33 87 -26 213 16 304 71 149 228 246 438 269 67 7
126 6 241 -6z m2922 -15 c94 -14 193 -47 193 -64 0 -9 -14 -69 -32 -136 -29
-110 -34 -120 -52 -115 -12 3 -57 14 -101 26 -98 26 -291 31 -375 11 -264 -65
-396 -301 -334 -598 20 -100 54 -164 120 -230 103 -103 271 -151 432 -124 l72
13 0 159 0 159 -115 0 -115 0 0 130 0 130 275 0 275 0 0 -394 0 -394 -32 -11
c-276 -87 -608 -94 -827 -18 -103 36 -175 81 -256 162 -151 150 -222 376 -194
622 42 381 303 632 710 682 81 11 259 6 356 -10z m-2143 -46 c43 -134 238
-837 267 -965 18 -82 36 -148 39 -148 3 0 16 48 29 108 24 108 145 538 244
867 l54 180 181 3 181 2 -249 -740 c-137 -408 -252 -746 -255 -751 -4 -5 -91
-9 -200 -9 l-194 0 -45 138 c-24 75 -131 407 -236 737 -106 330 -195 606 -197
613 -4 9 36 12 180 12 l185 0 16 -47z m2066 -2233 l0 -480 -1660 0 -1660 0 0
480 0 480 1660 0 1660 0 0 -480z"/>
</g>
</svg>
